<svg xmlns="http://www.w3.org/2000/svg" viewBox="0 0 64 64" fill="none">
  <defs>
    <linearGradient id="bg" x1="0" y1="0" x2="64" y2="64" gradientUnits="userSpaceOnUse">
      <stop offset="0%" stop-color="#6366f1"/>
      <stop offset="100%" stop-color="#4f46e5"/>
    </linearGradient>
  </defs>
  <rect width="64" height="64" rx="14" fill="url(#bg)"/>
  <path d="M18 14h20l10 10v26a4 4 0 0 1-4 4H18a4 4 0 0 1-4-4V18a4 4 0 0 1 4-4z" fill="white" fill-opacity="0.95"/>
  <path d="M38 14v10h10" fill="none" stroke="white" stroke-opacity="0.6" stroke-width="1.5" stroke-linejoin="round"/>
  <circle cx="27" cy="34" r="8" fill="none" stroke="#4f46e5" stroke-width="2.5"/>
  <line x1="33" y1="40" x2="39" y2="46" stroke="#4f46e5" stroke-width="2.5" stroke-linecap="round"/>
  <rect x="23" y="31" width="8" height="2" rx="1" fill="#4f46e5" fill-opacity="0.5"/>
  <rect x="25" y="27" width="4" height="2" rx="1" fill="#4f46e5" fill-opacity="0.3"/>
  <path d="M42 30l4 4-4 4" fill="none" stroke="#6366f1" stroke-width="1.8" stroke-linecap="round" stroke-linejoin="round" opacity="0.6"/>
  <path d="M50 30l-4 4 4 4" fill="none" stroke="#6366f1" stroke-width="1.8" stroke-linecap="round" stroke-linejoin="round" opacity="0.6"/>
</svg>
